<?xml version="1.0" standalone="no"?>
<!DOCTYPE svg PUBLIC "-//W3C//DTD SVG 20010904//EN"
 "http://www.w3.org/TR/2001/REC-SVG-20010904/DTD/svg10.dtd">
<svg version="1.0" xmlns="http://www.w3.org/2000/svg"
 width="544.000000pt" height="544.000000pt" viewBox="0 0 544.000000 544.000000"
 preserveAspectRatio="xMidYMid meet">
<metadata>
Created by potrace 1.14, written by Peter Selinger 2001-2017
</metadata>
<g transform="translate(0.000000,544.000000) scale(0.100000,-0.100000)"
fill="#000000" stroke="none">
<path d="M537 5403 c-3 -3 -125 -5 -271 -5 l-266 -1 2 -2195 3 -2196 50 -18
c28 -10 52 -18 55 -18 11 0 136 -42 152 -51 10 -5 23 -9 29 -9 6 0 125 -36
263 -81 138 -44 267 -86 286 -91 19 -6 49 -17 67 -25 17 -7 35 -13 40 -13 4 0
69 -20 143 -44 74 -24 223 -72 330 -106 328 -104 384 -122 405 -131 11 -4 38
-13 60 -19 22 -6 49 -15 60 -19 27 -12 311 -101 333 -106 9 -2 34 -11 54 -19
21 -9 39 -16 40 -15 2 0 10 -2 18 -5 64 -20 117 -36 125 -37 6 -1 39 -11 75
-24 36 -13 139 -46 230 -75 91 -28 176 -56 189 -61 19 -8 30 -4 67 26 24 20
49 41 56 48 7 7 47 41 88 77 41 36 77 67 80 70 7 7 130 113 158 136 13 10 34
28 46 39 25 23 102 89 225 194 46 40 89 77 96 84 7 7 31 27 53 45 23 18 54 45
70 60 16 15 58 51 93 81 35 30 71 62 80 70 9 9 40 36 70 61 29 25 63 54 75 65
12 11 37 33 55 49 69 60 185 162 205 181 12 11 61 56 110 100 49 44 103 94
120 110 160 149 245 228 289 270 29 28 85 81 125 120 134 128 199 242 241 423
27 116 33 298 12 386 -13 58 -76 184 -215 436 -14 25 -40 72 -58 105 -18 33
-42 74 -52 90 -10 17 -21 37 -24 45 -6 13 -155 272 -184 320 -23 38 -65 109
-87 150 -14 25 -32 52 -39 61 -8 8 -14 18 -14 21 0 3 -40 71 -88 150 -49 80
-92 151 -96 159 -12 24 -30 53 -54 86 -12 17 -22 33 -22 36 0 3 -46 79 -101
169 -56 89 -109 177 -119 193 -9 17 -72 119 -138 228 -67 108 -122 202 -122
207 0 6 -4 10 -8 10 -5 0 -16 15 -25 33 -9 17 -28 50 -42 72 -14 22 -33 55
-42 73 l-17 32 -1518 -2 c-835 -2 -1518 -5 -1518 -9 0 -3 -25 -2 -56 1 -30 3
-57 3 -60 -1 -2 -4 -17 -4 -32 0 -15 3 -45 4 -67 1 -22 -3 -50 -3 -61 1 -12 4
-24 5 -27 2z"/>
</g>
</svg>
