<?xml version="1.0" standalone="no"?>
<!DOCTYPE svg PUBLIC "-//W3C//DTD SVG 20010904//EN"
 "http://www.w3.org/TR/2001/REC-SVG-20010904/DTD/svg10.dtd">
<svg version="1.0" xmlns="http://www.w3.org/2000/svg"
 width="544.000000pt" height="544.000000pt" viewBox="0 0 544.000000 544.000000"
 preserveAspectRatio="xMidYMid meet">
<metadata>
Created by potrace 1.14, written by Peter Selinger 2001-2017
</metadata>
<g transform="translate(0.000000,544.000000) scale(0.100000,-0.100000)"
fill="#000000" stroke="none">
<path d="M526 5403 c-2 -3 -122 -5 -265 -5 l-261 -1 0 -853 0 -854 890 0 c493
0 890 -4 890 -9 0 -4 -5 -33 -11 -62 -5 -30 -12 -67 -14 -84 -2 -16 -6 -43 -9
-60 -6 -33 -12 -71 -21 -125 -3 -19 -7 -46 -10 -60 -3 -14 -7 -41 -11 -60 -3
-19 -7 -42 -9 -50 -2 -8 -4 -18 -4 -22 -1 -5 -155 -8 -344 -8 -268 0 -344 -3
-344 -12 0 -7 -10 -64 -22 -127 -11 -63 -19 -117 -16 -119 2 -3 0 -12 -4 -21
-5 -9 -11 -34 -15 -56 -14 -93 -17 -114 -31 -185 -7 -41 -16 -91 -19 -110 -3
-19 -10 -60 -15 -90 -5 -30 -21 -122 -36 -205 -32 -188 -33 -195 -39 -225 -3
-14 -8 -41 -10 -60 -3 -19 -7 -44 -10 -55 -5 -26 -19 -106 -21 -125 -2 -8 -5
-31 -9 -50 -11 -61 -25 -144 -31 -185 -4 -22 -8 -48 -11 -57 -3 -9 -7 -26 -9
-39 -2 -12 -7 -24 -11 -28 -3 -3 -145 -6 -315 -6 l-309 0 5 37 c3 20 8 50 10
65 4 29 9 53 25 138 5 28 12 68 16 90 3 22 7 47 9 55 2 8 7 33 10 55 3 23 8
52 11 65 3 14 7 36 9 50 2 14 6 39 9 55 3 17 8 47 11 69 4 21 9 48 11 60 3 11
7 35 9 51 6 40 14 85 19 111 2 12 7 39 10 60 4 22 20 113 36 204 38 216 41
231 45 260 2 14 6 36 9 50 5 24 15 84 21 125 3 19 10 56 21 123 l6 32 -186 0
-186 0 2 -1077 3 -1077 100 -32 c55 -18 215 -69 355 -114 140 -45 316 -102
390 -126 74 -24 140 -44 145 -45 6 -1 39 -12 75 -24 65 -23 446 -146 465 -151
6 -1 37 -11 70 -22 72 -25 316 -103 330 -106 6 -1 98 -31 205 -66 107 -35 200
-65 205 -66 6 -1 37 -11 70 -22 96 -32 359 -117 499 -162 71 -22 132 -37 135
-33 3 5 22 21 41 37 30 25 94 80 189 164 31 27 86 74 122 105 14 12 52 45 85
73 32 28 82 71 109 94 89 75 168 145 187 163 10 9 20 17 22 17 2 0 20 15 39
32 19 18 47 44 64 58 45 38 167 144 173 150 3 3 21 18 40 34 19 15 53 45 75
65 22 20 58 51 80 70 35 29 151 133 221 196 12 11 53 48 90 81 278 248 642
596 716 684 23 27 67 125 58 130 -4 3 -196 5 -426 5 -381 -1 -417 -2 -420 -17
-1 -9 -5 -34 -8 -55 -3 -21 -10 -61 -15 -90 -6 -29 -13 -74 -17 -100 -3 -26
-8 -51 -10 -54 -1 -3 -6 -28 -10 -55 -3 -27 -8 -58 -10 -69 -3 -11 -7 -33 -9
-50 -3 -16 -12 -66 -20 -110 -15 -78 -26 -147 -27 -172 -1 -7 -8 -14 -17 -17
-9 -2 -151 -3 -316 -2 -222 1 -299 5 -298 13 2 7 5 27 7 45 3 18 18 110 35
203 16 94 32 186 36 205 5 32 18 98 20 110 1 3 5 28 10 55 4 28 9 59 11 70 3
11 7 36 9 55 3 19 8 46 12 60 3 14 7 35 9 48 1 12 7 46 13 75 9 46 16 87 26
152 2 11 5 31 8 45 12 63 18 97 22 125 2 17 4 31 6 33 2 3 4 12 12 63 4 25 10
57 12 70 24 136 57 321 61 349 3 19 7 42 9 50 2 8 7 31 10 50 5 33 18 106 30
175 2 17 7 41 10 55 4 14 8 39 9 55 2 17 6 44 10 60 4 17 9 40 12 53 l4 22
375 0 c217 0 375 4 375 9 0 5 -34 65 -75 133 -41 67 -91 152 -111 188 -21 36
-41 67 -46 68 -4 2 -8 8 -8 12 0 10 -71 131 -137 232 -23 37 -43 70 -43 73 0
3 -15 29 -33 58 -45 69 -92 146 -227 367 -63 102 -125 203 -139 225 -14 22
-26 42 -26 45 0 3 -12 23 -26 45 -55 85 -109 177 -109 185 0 5 -3 10 -7 12 -5
2 -16 17 -25 33 l-17 30 -1576 0 c-867 0 -1579 -3 -1581 -6 -2 -4 -19 -4 -36
0 -18 4 -49 4 -68 1 -19 -3 -47 -3 -62 1 -14 4 -29 5 -32 2z m3350 -1730 c-3
-10 -8 -31 -11 -48 -3 -16 -7 -43 -10 -60 -3 -16 -10 -57 -16 -90 -6 -33 -12
-71 -15 -85 -2 -14 -7 -40 -10 -59 -3 -18 -8 -43 -10 -55 -2 -11 -7 -37 -10
-56 -12 -76 23 -69 -356 -72 l-341 -3 -3 -25 c-2 -14 -6 -36 -8 -50 -2 -14 -7
-43 -10 -65 -4 -22 -9 -51 -13 -65 -3 -14 -7 -34 -8 -45 -4 -24 -23 -140 -30
-175 -17 -96 -55 -311 -60 -340 -3 -19 -7 -46 -10 -60 -3 -14 -7 -41 -10 -60
-4 -19 -11 -55 -16 -79 -5 -24 -8 -46 -5 -48 3 -3 0 -16 -5 -30 -5 -13 -12
-45 -15 -71 -3 -25 -7 -49 -9 -52 -2 -4 -7 -29 -10 -56 -4 -27 -10 -67 -15
-89 -5 -22 -11 -58 -14 -80 -4 -23 -9 -52 -11 -65 -3 -14 -8 -40 -11 -59 -3
-18 -8 -43 -10 -55 -2 -11 -7 -37 -10 -56 -4 -30 -12 -72 -20 -102 -1 -5 -2
-12 -3 -16 -2 -13 -620 -10 -625 3 -2 7 0 34 5 61 5 27 12 63 15 79 2 17 9 57
15 90 6 33 13 69 14 80 1 11 3 20 5 20 1 0 3 9 4 20 3 23 18 115 22 130 1 6 4
26 8 45 10 59 16 94 21 125 3 17 7 41 10 55 3 14 8 41 11 60 2 19 7 46 10 60
2 14 6 36 9 50 16 91 46 259 50 280 3 14 7 43 10 65 3 22 7 47 10 55 2 8 6 29
9 45 5 32 19 117 21 125 1 5 14 80 21 120 2 14 6 35 8 46 2 12 7 37 10 55 3
19 8 44 10 57 l5 22 -340 0 -341 0 7 43 c11 73 15 91 20 117 3 14 8 41 11 60
2 19 7 46 10 60 2 14 9 50 14 80 6 30 12 64 14 75 2 11 7 39 11 63 l7 42 1000
0 c947 0 999 -1 994 -17z"/>
<path d="M4723 3162 c-26 -3 -33 -8 -39 -35 -4 -18 -7 -35 -6 -39 1 -4 -3 -29
-8 -55 -15 -77 -24 -125 -34 -190 -2 -16 -7 -44 -11 -63 -17 -83 -62 -75 403
-77 l413 -2 -7 32 c-3 17 -10 38 -14 47 -5 8 -23 44 -41 80 -18 36 -40 80 -48
98 -8 17 -19 32 -23 32 -4 0 -8 8 -8 18 0 9 -9 28 -20 42 -11 14 -20 30 -20
35 0 6 -10 26 -23 44 l-23 34 -230 1 c-126 1 -243 0 -261 -2z"/>
</g>
</svg>
